# xmcd CD database file
#
# Track frame offsets:
#	150
#	32068
#	66365
#	80072
#	102292
#	154475
#	162509
#	187762
#	246653
#	265432
#
# Disc length: 4145 seconds
#
# Revision: 0
# Processed by: cddbd v1.5.1PL0 Copyright (c) Steve Scherf et al.
# Submitted via: CDex 1.50
#
DISCID=90102f0a
DTITLE=David Young - Ancient Treasures
DYEAR=2003
DGENRE=New Age
TTITLE0=Remembering the Dream of the Ancient Garden - The Elusive
TTITLE1=Inside the Translucence - Theme of Pearl Essence
TTITLE2=Remembering the Mysteries of the Past
TTITLE3=Sweetness in the Wind
TTITLE4=The New World of the Ancients - I Could Fly Away with You Forever
TTITLE5=Remembering the Sweetness Within
TTITLE6=Open Your Mind and Dream
TTITLE7=The Recurring Dream of Translucence - Love Connects Us - The Procession
TTITLE8=Remembrance
TTITLE9=PC-Data Track
EXTD=YEAR: 2003
EXTT0=
EXTT1=
EXTT2=
EXTT3=
EXTT4=
EXTT5=
EXTT6=
EXTT7=
EXTT8=
EXTT9=
PLAYORDER=
